Coordinates
nRows=4
nColumns=38

# SIMM Motion File Header:
name Coordinates
datacolumns 38
datarows 4
otherdata 1
range 0.67100000000000004000 0.67400000000000004000

Units are S.I. units (second, meters, Newtons, ...)
Angles are in degrees.

endheader
time	pelvis_tilt	pelvis_list	pelvis_rotation	pelvis_tx	pelvis_ty	pelvis_tz	hip_flexion_r	hip_adduction_r	hip_rotation_r	knee_angle_r	ankle_angle_r	subtalar_angle_r	mtp_angle_r	hip_flexion_l	hip_adduction_l	hip_rotation_l	knee_angle_l	ankle_angle_l	subtalar_angle_l	mtp_angle_l	lumbar_extension	lumbar_bending	lumbar_rotation	arm_flex_r	arm_add_r	arm_rot_r	elbow_flex_r	pro_sup_r	wrist_flex_r	wrist_dev_r	arm_flex_l	arm_add_l	arm_rot_l	elbow_flex_l	pro_sup_l	wrist_flex_l	wrist_dev_l
      0.67100000000000004000	     -3.69683727510932190000	      0.08894386087318666100	      4.38404560515917740000	      0.74354082930169541000	      0.96367243796641511000	     -0.33093318722009124000	     40.97962418478938000000	     -1.64114946489681680000	     -8.10495884021173830000	   -107.37021896621297000000	     -2.95399815147467980000	     -0.00000000000035402598	     -0.00000000000012921421	      0.40346019526645355000	      3.51581535757489890000	     -2.75206396075094300000	    -28.11984177352249900000	     12.11556631087949900000	     -0.00000000000001084694	      0.00000000000021719294	     -7.40175654851533870000	     -1.00204814858137370000	    -15.51690299445827000000	    -20.96440379013006000000	    -23.93221019104145200000	     12.60871731411411300000	     73.51203059668249300000	     77.62209469518529700000	      0.00000000000019063476	      0.00000000000004935855	     -6.15704732082058030000	    -36.47342370966610800000	     19.99786650102622700000	    107.69229424500986000000	     78.27362114420903100000	      0.00000000000000269933	      0.00000000000006010062
      0.67200000000000004000	     -3.67907899881364430000	     -0.02678621101121750700	      4.39287888231804220000	      0.74359503420695749000	      0.96435257273474440000	     -0.33096662939471372000	     41.12135652743298000000	     -1.52117561189522350000	     -8.13885158511433990000	   -106.93638647429061000000	     -2.86977232144974750000	     -0.00000000000035494590	     -0.00000000000012950620	      0.00935958094796118110	      3.34905522544173140000	     -2.74394162940096460000	    -27.80034658265298800000	     11.65712261075962900000	     -0.00000000000000999288	      0.00000000000021755721	     -7.40780109752443220000	     -0.84878274787930341000	    -15.66694928937824500000	    -21.08405955745643500000	    -24.04043551811824400000	     12.60413351750225900000	     73.63537378036024000000	     77.61106354131230500000	      0.00000000000019115009	      0.00000000000004950967	     -6.07360474357030000000	    -36.40103883576574600000	     19.88225311219219200000	    107.91579168229444000000	     78.31842396108551400000	      0.00000000000000271888	      0.00000000000006091745
      0.67300000000000004000	     -3.66426720559177310000	     -0.14435574648490751000	      4.40186440545214360000	      0.74365587289976887000	      0.96503364715481499000	     -0.33099974432997953000	     41.26126999733779900000	     -1.40006852981779570000	     -8.17502210430384050000	   -106.49543093991448000000	     -2.78770198254349210000	     -0.00000000000035586677	     -0.00000000000012979858	     -0.37962468541326000000	      3.18003235678703030000	     -2.73850015329646950000	    -27.48175654609377400000	     11.18701268894986400000	     -0.00000000000000915384	      0.00000000000021791383	     -7.40930341808254230000	     -0.69348858141025560000	    -15.81573867496732600000	    -21.20534162592240800000	    -24.14870208431200600000	     12.59742801464886800000	     73.75924825762678000000	     77.60126641425317500000	      0.00000000000019166452	      0.00000000000004965984	     -5.99227045623515320000	    -36.32849956830667500000	     19.76754888261207900000	    108.14034057108694000000	     78.36386520806516400000	      0.00000000000000273634	      0.00000000000006172305
      0.67400000000000004000	     -3.65230237544333840000	     -0.26359886868387372000	      4.41093295406349650000	      0.74372315969323577000	      0.96571551254451582000	     -0.33103238302961130000	     41.39929944173975000000	     -1.27792399445304920000	     -8.21328769575191410000	   -106.04746150320767000000	     -2.70789986305891170000	     -0.00000000000035678604	     -0.00000000000013009088	     -0.76351393966074499000	      3.00893690233736200000	     -2.73589259343669290000	    -27.16416884364610200000	     10.70528419810065300000	     -0.00000000000000834289	      0.00000000000021830144	     -7.40642583013319020000	     -0.53636465122922272000	    -15.96320961587313500000	    -21.32823873287473000000	    -24.25694773786245800000	     12.58859587158533900000	     73.88358949592579000000	     77.59260426653153800000	      0.00000000000019217749	      0.00000000000004980965	     -5.91296905340487110000	    -36.25584989022132700000	     19.65384080187604700000	    108.36590196777308000000	     78.40996202664639700000	      0.00000000000000275382	      0.00000000000006252965
